<?xml version="1.0" encoding="UTF-8" standalone="no"?>
<!DOCTYPE svg PUBLIC "-//W3C//DTD SVG 1.1//EN"
        "http://www.w3.org/Graphics/SVG/1.1/DTD/svg11.dtd">
<!-- Generated by graphviz version 2.38.0 (20140413.2041)
 -->
<!-- Title: G Pages: 1 -->
<svg width="392pt" height="1964pt"
     viewBox="0.00 0.00 392.00 1964.00" xmlns="http://www.w3.org/2000/svg">
    <g id="graph0" class="graph" transform="scale(1 1) rotate(0) translate(4 1960)">
        <title>G</title>
        <polygon fill="white" stroke="none" points="-4,4 -4,-1960 388,-1960 388,4 -4,4"/>
        <!-- 2351460936952 -->
        <g id="node1" class="node">
            <title>2351460936952</title>
            <polygon fill="none" stroke="black"
                     points="17.5,-1909.5 17.5,-1955.5 366.5,-1955.5 366.5,-1909.5 17.5,-1909.5"/>
            <text text-anchor="middle" x="104.5" y="-1928.8" font-family="Times New Roman,serif" font-size="14.00">
                lambda_input_1: InputLayer
            </text>
            <polyline fill="none" stroke="black" points="191.5,-1909.5 191.5,-1955.5 "/>
            <text text-anchor="middle" x="219.5" y="-1940.3" font-family="Times New Roman,serif" font-size="14.00">
                input:
            </text>
            <polyline fill="none" stroke="black" points="191.5,-1932.5 247.5,-1932.5 "/>
            <text text-anchor="middle" x="219.5" y="-1917.3" font-family="Times New Roman,serif" font-size="14.00">
                output:
            </text>
            <polyline fill="none" stroke="black" points="247.5,-1909.5 247.5,-1955.5 "/>
            <text text-anchor="middle" x="307" y="-1940.3" font-family="Times New Roman,serif" font-size="14.00">(None,
                66, 200, 3)
            </text>
            <polyline fill="none" stroke="black" points="247.5,-1932.5 366.5,-1932.5 "/>
            <text text-anchor="middle" x="307" y="-1917.3" font-family="Times New Roman,serif" font-size="14.00">(None,
                66, 200, 3)
            </text>
        </g>
        <!-- 2351463666520 -->
        <g id="node2" class="node">
            <title>2351463666520</title>
            <polygon fill="none" stroke="black"
                     points="42.5,-1826.5 42.5,-1872.5 341.5,-1872.5 341.5,-1826.5 42.5,-1826.5"/>
            <text text-anchor="middle" x="104.5" y="-1845.8" font-family="Times New Roman,serif" font-size="14.00">
                lambda_1: Lambda
            </text>
            <polyline fill="none" stroke="black" points="166.5,-1826.5 166.5,-1872.5 "/>
            <text text-anchor="middle" x="194.5" y="-1857.3" font-family="Times New Roman,serif" font-size="14.00">
                input:
            </text>
            <polyline fill="none" stroke="black" points="166.5,-1849.5 222.5,-1849.5 "/>
            <text text-anchor="middle" x="194.5" y="-1834.3" font-family="Times New Roman,serif" font-size="14.00">
                output:
            </text>
            <polyline fill="none" stroke="black" points="222.5,-1826.5 222.5,-1872.5 "/>
            <text text-anchor="middle" x="282" y="-1857.3" font-family="Times New Roman,serif" font-size="14.00">(None,
                66, 200, 3)
            </text>
            <polyline fill="none" stroke="black" points="222.5,-1849.5 341.5,-1849.5 "/>
            <text text-anchor="middle" x="282" y="-1834.3" font-family="Times New Roman,serif" font-size="14.00">(None,
                66, 200, 3)
            </text>
        </g>
        <!-- 2351460936952&#45;&gt;2351463666520 -->
        <g id="edge1" class="edge">
            <title>2351460936952&#45;&gt;2351463666520</title>
            <path fill="none" stroke="black" d="M192,-1909.37C192,-1901.15 192,-1891.66 192,-1882.73"/>
            <polygon fill="black" stroke="black" points="195.5,-1882.61 192,-1872.61 188.5,-1882.61 195.5,-1882.61"/>
        </g>
        <!-- 2351484672432 -->
        <g id="node3" class="node">
            <title>2351484672432</title>
            <polygon fill="none" stroke="black" points="0,-1743.5 0,-1789.5 384,-1789.5 384,-1743.5 0,-1743.5"/>
            <text text-anchor="middle" x="101.5" y="-1762.8" font-family="Times New Roman,serif" font-size="14.00">
                convolution2d_1: Convolution2D
            </text>
            <polyline fill="none" stroke="black" points="203,-1743.5 203,-1789.5 "/>
            <text text-anchor="middle" x="231" y="-1774.3" font-family="Times New Roman,serif" font-size="14.00">
                input:
            </text>
            <polyline fill="none" stroke="black" points="203,-1766.5 259,-1766.5 "/>
            <text text-anchor="middle" x="231" y="-1751.3" font-family="Times New Roman,serif" font-size="14.00">
                output:
            </text>
            <polyline fill="none" stroke="black" points="259,-1743.5 259,-1789.5 "/>
            <text text-anchor="middle" x="321.5" y="-1774.3" font-family="Times New Roman,serif" font-size="14.00">
                (None, 66, 200, 3)
            </text>
            <polyline fill="none" stroke="black" points="259,-1766.5 384,-1766.5 "/>
            <text text-anchor="middle" x="321.5" y="-1751.3" font-family="Times New Roman,serif" font-size="14.00">
                (None, 33, 100, 24)
            </text>
        </g>
        <!-- 2351463666520&#45;&gt;2351484672432 -->
        <g id="edge2" class="edge">
            <title>2351463666520&#45;&gt;2351484672432</title>
            <path fill="none" stroke="black" d="M192,-1826.37C192,-1818.15 192,-1808.66 192,-1799.73"/>
            <polygon fill="black" stroke="black" points="195.5,-1799.61 192,-1789.61 188.5,-1799.61 195.5,-1799.61"/>
        </g>
        <!-- 2351464392856 -->
        <g id="node4" class="node">
            <title>2351464392856</title>
            <polygon fill="none" stroke="black" points="48,-1660.5 48,-1706.5 336,-1706.5 336,-1660.5 48,-1660.5"/>
            <text text-anchor="middle" x="101.5" y="-1679.8" font-family="Times New Roman,serif" font-size="14.00">
                prelu_1: PReLU
            </text>
            <polyline fill="none" stroke="black" points="155,-1660.5 155,-1706.5 "/>
            <text text-anchor="middle" x="183" y="-1691.3" font-family="Times New Roman,serif" font-size="14.00">
                input:
            </text>
            <polyline fill="none" stroke="black" points="155,-1683.5 211,-1683.5 "/>
            <text text-anchor="middle" x="183" y="-1668.3" font-family="Times New Roman,serif" font-size="14.00">
                output:
            </text>
            <polyline fill="none" stroke="black" points="211,-1660.5 211,-1706.5 "/>
            <text text-anchor="middle" x="273.5" y="-1691.3" font-family="Times New Roman,serif" font-size="14.00">
                (None, 33, 100, 24)
            </text>
            <polyline fill="none" stroke="black" points="211,-1683.5 336,-1683.5 "/>
            <text text-anchor="middle" x="273.5" y="-1668.3" font-family="Times New Roman,serif" font-size="14.00">
                (None, 33, 100, 24)
            </text>
        </g>
        <!-- 2351484672432&#45;&gt;2351464392856 -->
        <g id="edge3" class="edge">
            <title>2351484672432&#45;&gt;2351464392856</title>
            <path fill="none" stroke="black" d="M192,-1743.37C192,-1735.15 192,-1725.66 192,-1716.73"/>
            <polygon fill="black" stroke="black" points="195.5,-1716.61 192,-1706.61 188.5,-1716.61 195.5,-1716.61"/>
        </g>
        <!-- 2351478525904 -->
        <g id="node5" class="node">
            <title>2351478525904</title>
            <polygon fill="none" stroke="black" points="0,-1577.5 0,-1623.5 384,-1623.5 384,-1577.5 0,-1577.5"/>
            <text text-anchor="middle" x="101.5" y="-1596.8" font-family="Times New Roman,serif" font-size="14.00">
                convolution2d_2: Convolution2D
            </text>
            <polyline fill="none" stroke="black" points="203,-1577.5 203,-1623.5 "/>
            <text text-anchor="middle" x="231" y="-1608.3" font-family="Times New Roman,serif" font-size="14.00">
                input:
            </text>
            <polyline fill="none" stroke="black" points="203,-1600.5 259,-1600.5 "/>
            <text text-anchor="middle" x="231" y="-1585.3" font-family="Times New Roman,serif" font-size="14.00">
                output:
            </text>
            <polyline fill="none" stroke="black" points="259,-1577.5 259,-1623.5 "/>
            <text text-anchor="middle" x="321.5" y="-1608.3" font-family="Times New Roman,serif" font-size="14.00">
                (None, 33, 100, 24)
            </text>
            <polyline fill="none" stroke="black" points="259,-1600.5 384,-1600.5 "/>
            <text text-anchor="middle" x="321.5" y="-1585.3" font-family="Times New Roman,serif" font-size="14.00">
                (None, 17, 50, 36)
            </text>
        </g>
        <!-- 2351464392856&#45;&gt;2351478525904 -->
        <g id="edge4" class="edge">
            <title>2351464392856&#45;&gt;2351478525904</title>
            <path fill="none" stroke="black" d="M192,-1660.37C192,-1652.15 192,-1642.66 192,-1633.73"/>
            <polygon fill="black" stroke="black" points="195.5,-1633.61 192,-1623.61 188.5,-1633.61 195.5,-1633.61"/>
        </g>
        <!-- 2351464900480 -->
        <g id="node6" class="node">
            <title>2351464900480</title>
            <polygon fill="none" stroke="black" points="51,-1494.5 51,-1540.5 333,-1540.5 333,-1494.5 51,-1494.5"/>
            <text text-anchor="middle" x="104.5" y="-1513.8" font-family="Times New Roman,serif" font-size="14.00">
                prelu_2: PReLU
            </text>
            <polyline fill="none" stroke="black" points="158,-1494.5 158,-1540.5 "/>
            <text text-anchor="middle" x="186" y="-1525.3" font-family="Times New Roman,serif" font-size="14.00">
                input:
            </text>
            <polyline fill="none" stroke="black" points="158,-1517.5 214,-1517.5 "/>
            <text text-anchor="middle" x="186" y="-1502.3" font-family="Times New Roman,serif" font-size="14.00">
                output:
            </text>
            <polyline fill="none" stroke="black" points="214,-1494.5 214,-1540.5 "/>
            <text text-anchor="middle" x="273.5" y="-1525.3" font-family="Times New Roman,serif" font-size="14.00">
                (None, 17, 50, 36)
            </text>
            <polyline fill="none" stroke="black" points="214,-1517.5 333,-1517.5 "/>
            <text text-anchor="middle" x="273.5" y="-1502.3" font-family="Times New Roman,serif" font-size="14.00">
                (None, 17, 50, 36)
            </text>
        </g>
        <!-- 2351478525904&#45;&gt;2351464900480 -->
        <g id="edge5" class="edge">
            <title>2351478525904&#45;&gt;2351464900480</title>
            <path fill="none" stroke="black" d="M192,-1577.37C192,-1569.15 192,-1559.66 192,-1550.73"/>
            <polygon fill="black" stroke="black" points="195.5,-1550.61 192,-1540.61 188.5,-1550.61 195.5,-1550.61"/>
        </g>
        <!-- 2351464900984 -->
        <g id="node7" class="node">
            <title>2351464900984</title>
            <polygon fill="none" stroke="black" points="3,-1411.5 3,-1457.5 381,-1457.5 381,-1411.5 3,-1411.5"/>
            <text text-anchor="middle" x="104.5" y="-1430.8" font-family="Times New Roman,serif" font-size="14.00">
                convolution2d_3: Convolution2D
            </text>
            <polyline fill="none" stroke="black" points="206,-1411.5 206,-1457.5 "/>
            <text text-anchor="middle" x="234" y="-1442.3" font-family="Times New Roman,serif" font-size="14.00">
                input:
            </text>
            <polyline fill="none" stroke="black" points="206,-1434.5 262,-1434.5 "/>
            <text text-anchor="middle" x="234" y="-1419.3" font-family="Times New Roman,serif" font-size="14.00">
                output:
            </text>
            <polyline fill="none" stroke="black" points="262,-1411.5 262,-1457.5 "/>
            <text text-anchor="middle" x="321.5" y="-1442.3" font-family="Times New Roman,serif" font-size="14.00">
                (None, 17, 50, 36)
            </text>
            <polyline fill="none" stroke="black" points="262,-1434.5 381,-1434.5 "/>
            <text text-anchor="middle" x="321.5" y="-1419.3" font-family="Times New Roman,serif" font-size="14.00">
                (None, 9, 25, 48)
            </text>
        </g>
        <!-- 2351464900480&#45;&gt;2351464900984 -->
        <g id="edge6" class="edge">
            <title>2351464900480&#45;&gt;2351464900984</title>
            <path fill="none" stroke="black" d="M192,-1494.37C192,-1486.15 192,-1476.66 192,-1467.73"/>
            <polygon fill="black" stroke="black" points="195.5,-1467.61 192,-1457.61 188.5,-1467.61 195.5,-1467.61"/>
        </g>
        <!-- 2351464836848 -->
        <g id="node8" class="node">
            <title>2351464836848</title>
            <polygon fill="none" stroke="black"
                     points="54.5,-1328.5 54.5,-1374.5 329.5,-1374.5 329.5,-1328.5 54.5,-1328.5"/>
            <text text-anchor="middle" x="108" y="-1347.8" font-family="Times New Roman,serif" font-size="14.00">
                prelu_3: PReLU
            </text>
            <polyline fill="none" stroke="black" points="161.5,-1328.5 161.5,-1374.5 "/>
            <text text-anchor="middle" x="189.5" y="-1359.3" font-family="Times New Roman,serif" font-size="14.00">
                input:
            </text>
            <polyline fill="none" stroke="black" points="161.5,-1351.5 217.5,-1351.5 "/>
            <text text-anchor="middle" x="189.5" y="-1336.3" font-family="Times New Roman,serif" font-size="14.00">
                output:
            </text>
            <polyline fill="none" stroke="black" points="217.5,-1328.5 217.5,-1374.5 "/>
            <text text-anchor="middle" x="273.5" y="-1359.3" font-family="Times New Roman,serif" font-size="14.00">
                (None, 9, 25, 48)
            </text>
            <polyline fill="none" stroke="black" points="217.5,-1351.5 329.5,-1351.5 "/>
            <text text-anchor="middle" x="273.5" y="-1336.3" font-family="Times New Roman,serif" font-size="14.00">
                (None, 9, 25, 48)
            </text>
        </g>
        <!-- 2351464900984&#45;&gt;2351464836848 -->
        <g id="edge7" class="edge">
            <title>2351464900984&#45;&gt;2351464836848</title>
            <path fill="none" stroke="black" d="M192,-1411.37C192,-1403.15 192,-1393.66 192,-1384.73"/>
            <polygon fill="black" stroke="black" points="195.5,-1384.61 192,-1374.61 188.5,-1384.61 195.5,-1384.61"/>
        </g>
        <!-- 2351465188432 -->
        <g id="node9" class="node">
            <title>2351465188432</title>
            <polygon fill="none" stroke="black"
                     points="6.5,-1245.5 6.5,-1291.5 377.5,-1291.5 377.5,-1245.5 6.5,-1245.5"/>
            <text text-anchor="middle" x="108" y="-1264.8" font-family="Times New Roman,serif" font-size="14.00">
                convolution2d_4: Convolution2D
            </text>
            <polyline fill="none" stroke="black" points="209.5,-1245.5 209.5,-1291.5 "/>
            <text text-anchor="middle" x="237.5" y="-1276.3" font-family="Times New Roman,serif" font-size="14.00">
                input:
            </text>
            <polyline fill="none" stroke="black" points="209.5,-1268.5 265.5,-1268.5 "/>
            <text text-anchor="middle" x="237.5" y="-1253.3" font-family="Times New Roman,serif" font-size="14.00">
                output:
            </text>
            <polyline fill="none" stroke="black" points="265.5,-1245.5 265.5,-1291.5 "/>
            <text text-anchor="middle" x="321.5" y="-1276.3" font-family="Times New Roman,serif" font-size="14.00">
                (None, 9, 25, 48)
            </text>
            <polyline fill="none" stroke="black" points="265.5,-1268.5 377.5,-1268.5 "/>
            <text text-anchor="middle" x="321.5" y="-1253.3" font-family="Times New Roman,serif" font-size="14.00">
                (None, 5, 13, 64)
            </text>
        </g>
        <!-- 2351464836848&#45;&gt;2351465188432 -->
        <g id="edge8" class="edge">
            <title>2351464836848&#45;&gt;2351465188432</title>
            <path fill="none" stroke="black" d="M192,-1328.37C192,-1320.15 192,-1310.66 192,-1301.73"/>
            <polygon fill="black" stroke="black" points="195.5,-1301.61 192,-1291.61 188.5,-1301.61 195.5,-1301.61"/>
        </g>
        <!-- 2351461022520 -->
        <g id="node10" class="node">
            <title>2351461022520</title>
            <polygon fill="none" stroke="black"
                     points="54.5,-1162.5 54.5,-1208.5 329.5,-1208.5 329.5,-1162.5 54.5,-1162.5"/>
            <text text-anchor="middle" x="108" y="-1181.8" font-family="Times New Roman,serif" font-size="14.00">
                prelu_4: PReLU
            </text>
            <polyline fill="none" stroke="black" points="161.5,-1162.5 161.5,-1208.5 "/>
            <text text-anchor="middle" x="189.5" y="-1193.3" font-family="Times New Roman,serif" font-size="14.00">
                input:
            </text>
            <polyline fill="none" stroke="black" points="161.5,-1185.5 217.5,-1185.5 "/>
            <text text-anchor="middle" x="189.5" y="-1170.3" font-family="Times New Roman,serif" font-size="14.00">
                output:
            </text>
            <polyline fill="none" stroke="black" points="217.5,-1162.5 217.5,-1208.5 "/>
            <text text-anchor="middle" x="273.5" y="-1193.3" font-family="Times New Roman,serif" font-size="14.00">
                (None, 5, 13, 64)
            </text>
            <polyline fill="none" stroke="black" points="217.5,-1185.5 329.5,-1185.5 "/>
            <text text-anchor="middle" x="273.5" y="-1170.3" font-family="Times New Roman,serif" font-size="14.00">
                (None, 5, 13, 64)
            </text>
        </g>
        <!-- 2351465188432&#45;&gt;2351461022520 -->
        <g id="edge9" class="edge">
            <title>2351465188432&#45;&gt;2351461022520</title>
            <path fill="none" stroke="black" d="M192,-1245.37C192,-1237.15 192,-1227.66 192,-1218.73"/>
            <polygon fill="black" stroke="black" points="195.5,-1218.61 192,-1208.61 188.5,-1218.61 195.5,-1218.61"/>
        </g>
        <!-- 2351465652120 -->
        <g id="node11" class="node">
            <title>2351465652120</title>
            <polygon fill="none" stroke="black"
                     points="6.5,-1079.5 6.5,-1125.5 377.5,-1125.5 377.5,-1079.5 6.5,-1079.5"/>
            <text text-anchor="middle" x="108" y="-1098.8" font-family="Times New Roman,serif" font-size="14.00">
                convolution2d_5: Convolution2D
            </text>
            <polyline fill="none" stroke="black" points="209.5,-1079.5 209.5,-1125.5 "/>
            <text text-anchor="middle" x="237.5" y="-1110.3" font-family="Times New Roman,serif" font-size="14.00">
                input:
            </text>
            <polyline fill="none" stroke="black" points="209.5,-1102.5 265.5,-1102.5 "/>
            <text text-anchor="middle" x="237.5" y="-1087.3" font-family="Times New Roman,serif" font-size="14.00">
                output:
            </text>
            <polyline fill="none" stroke="black" points="265.5,-1079.5 265.5,-1125.5 "/>
            <text text-anchor="middle" x="321.5" y="-1110.3" font-family="Times New Roman,serif" font-size="14.00">
                (None, 5, 13, 64)
            </text>
            <polyline fill="none" stroke="black" points="265.5,-1102.5 377.5,-1102.5 "/>
            <text text-anchor="middle" x="321.5" y="-1087.3" font-family="Times New Roman,serif" font-size="14.00">
                (None, 3, 7, 64)
            </text>
        </g>
        <!-- 2351461022520&#45;&gt;2351465652120 -->
        <g id="edge10" class="edge">
            <title>2351461022520&#45;&gt;2351465652120</title>
            <path fill="none" stroke="black" d="M192,-1162.37C192,-1154.15 192,-1144.66 192,-1135.73"/>
            <polygon fill="black" stroke="black" points="195.5,-1135.61 192,-1125.61 188.5,-1135.61 195.5,-1135.61"/>
        </g>
        <!-- 2351471619656 -->
        <g id="node12" class="node">
            <title>2351471619656</title>
            <polygon fill="none" stroke="black" points="58,-996.5 58,-1042.5 326,-1042.5 326,-996.5 58,-996.5"/>
            <text text-anchor="middle" x="111.5" y="-1015.8" font-family="Times New Roman,serif" font-size="14.00">
                prelu_5: PReLU
            </text>
            <polyline fill="none" stroke="black" points="165,-996.5 165,-1042.5 "/>
            <text text-anchor="middle" x="193" y="-1027.3" font-family="Times New Roman,serif" font-size="14.00">
                input:
            </text>
            <polyline fill="none" stroke="black" points="165,-1019.5 221,-1019.5 "/>
            <text text-anchor="middle" x="193" y="-1004.3" font-family="Times New Roman,serif" font-size="14.00">
                output:
            </text>
            <polyline fill="none" stroke="black" points="221,-996.5 221,-1042.5 "/>
            <text text-anchor="middle" x="273.5" y="-1027.3" font-family="Times New Roman,serif" font-size="14.00">
                (None, 3, 7, 64)
            </text>
            <polyline fill="none" stroke="black" points="221,-1019.5 326,-1019.5 "/>
            <text text-anchor="middle" x="273.5" y="-1004.3" font-family="Times New Roman,serif" font-size="14.00">
                (None, 3, 7, 64)
            </text>
        </g>
        <!-- 2351465652120&#45;&gt;2351471619656 -->
        <g id="edge11" class="edge">
            <title>2351465652120&#45;&gt;2351471619656</title>
            <path fill="none" stroke="black" d="M192,-1079.37C192,-1071.15 192,-1061.66 192,-1052.73"/>
            <polygon fill="black" stroke="black" points="195.5,-1052.61 192,-1042.61 188.5,-1052.61 195.5,-1052.61"/>
        </g>
        <!-- 2351471619432 -->
        <g id="node13" class="node">
            <title>2351471619432</title>
            <polygon fill="none" stroke="black" points="57,-913.5 57,-959.5 327,-959.5 327,-913.5 57,-913.5"/>
            <text text-anchor="middle" x="111.5" y="-932.8" font-family="Times New Roman,serif" font-size="14.00">
                flatten_1: Flatten
            </text>
            <polyline fill="none" stroke="black" points="166,-913.5 166,-959.5 "/>
            <text text-anchor="middle" x="194" y="-944.3" font-family="Times New Roman,serif" font-size="14.00">input:
            </text>
            <polyline fill="none" stroke="black" points="166,-936.5 222,-936.5 "/>
            <text text-anchor="middle" x="194" y="-921.3" font-family="Times New Roman,serif" font-size="14.00">
                output:
            </text>
            <polyline fill="none" stroke="black" points="222,-913.5 222,-959.5 "/>
            <text text-anchor="middle" x="274.5" y="-944.3" font-family="Times New Roman,serif" font-size="14.00">(None,
                3, 7, 64)
            </text>
            <polyline fill="none" stroke="black" points="222,-936.5 327,-936.5 "/>
            <text text-anchor="middle" x="274.5" y="-921.3" font-family="Times New Roman,serif" font-size="14.00">(None,
                1344)
            </text>
        </g>
        <!-- 2351471619656&#45;&gt;2351471619432 -->
        <g id="edge12" class="edge">
            <title>2351471619656&#45;&gt;2351471619432</title>
            <path fill="none" stroke="black" d="M192,-996.366C192,-988.152 192,-978.658 192,-969.725"/>
            <polygon fill="black" stroke="black" points="195.5,-969.607 192,-959.607 188.5,-969.607 195.5,-969.607"/>
        </g>
        <!-- 2351471512712 -->
        <g id="node14" class="node">
            <title>2351471512712</title>
            <polygon fill="none" stroke="black" points="54,-830.5 54,-876.5 330,-876.5 330,-830.5 54,-830.5"/>
            <text text-anchor="middle" x="119" y="-849.8" font-family="Times New Roman,serif" font-size="14.00">
                dropout_1: Dropout
            </text>
            <polyline fill="none" stroke="black" points="184,-830.5 184,-876.5 "/>
            <text text-anchor="middle" x="212" y="-861.3" font-family="Times New Roman,serif" font-size="14.00">input:
            </text>
            <polyline fill="none" stroke="black" points="184,-853.5 240,-853.5 "/>
            <text text-anchor="middle" x="212" y="-838.3" font-family="Times New Roman,serif" font-size="14.00">
                output:
            </text>
            <polyline fill="none" stroke="black" points="240,-830.5 240,-876.5 "/>
            <text text-anchor="middle" x="285" y="-861.3" font-family="Times New Roman,serif" font-size="14.00">(None,
                1344)
            </text>
            <polyline fill="none" stroke="black" points="240,-853.5 330,-853.5 "/>
            <text text-anchor="middle" x="285" y="-838.3" font-family="Times New Roman,serif" font-size="14.00">(None,
                1344)
            </text>
        </g>
        <!-- 2351471619432&#45;&gt;2351471512712 -->
        <g id="edge13" class="edge">
            <title>2351471619432&#45;&gt;2351471512712</title>
            <path fill="none" stroke="black" d="M192,-913.366C192,-905.152 192,-895.658 192,-886.725"/>
            <polygon fill="black" stroke="black" points="195.5,-886.607 192,-876.607 188.5,-886.607 195.5,-886.607"/>
        </g>
        <!-- 2351464337984 -->
        <g id="node15" class="node">
            <title>2351464337984</title>
            <polygon fill="none" stroke="black" points="67,-747.5 67,-793.5 317,-793.5 317,-747.5 67,-747.5"/>
            <text text-anchor="middle" x="119" y="-766.8" font-family="Times New Roman,serif" font-size="14.00">dense_1:
                Dense
            </text>
            <polyline fill="none" stroke="black" points="171,-747.5 171,-793.5 "/>
            <text text-anchor="middle" x="199" y="-778.3" font-family="Times New Roman,serif" font-size="14.00">input:
            </text>
            <polyline fill="none" stroke="black" points="171,-770.5 227,-770.5 "/>
            <text text-anchor="middle" x="199" y="-755.3" font-family="Times New Roman,serif" font-size="14.00">
                output:
            </text>
            <polyline fill="none" stroke="black" points="227,-747.5 227,-793.5 "/>
            <text text-anchor="middle" x="272" y="-778.3" font-family="Times New Roman,serif" font-size="14.00">(None,
                1344)
            </text>
            <polyline fill="none" stroke="black" points="227,-770.5 317,-770.5 "/>
            <text text-anchor="middle" x="272" y="-755.3" font-family="Times New Roman,serif" font-size="14.00">(None,
                1164)
            </text>
        </g>
        <!-- 2351471512712&#45;&gt;2351464337984 -->
        <g id="edge14" class="edge">
            <title>2351471512712&#45;&gt;2351464337984</title>
            <path fill="none" stroke="black" d="M192,-830.366C192,-822.152 192,-812.658 192,-803.725"/>
            <polygon fill="black" stroke="black" points="195.5,-803.607 192,-793.607 188.5,-803.607 195.5,-803.607"/>
        </g>
        <!-- 2351464215776 -->
        <g id="node16" class="node">
            <title>2351464215776</title>
            <polygon fill="none" stroke="black" points="65.5,-664.5 65.5,-710.5 318.5,-710.5 318.5,-664.5 65.5,-664.5"/>
            <text text-anchor="middle" x="119" y="-683.8" font-family="Times New Roman,serif" font-size="14.00">prelu_6:
                PReLU
            </text>
            <polyline fill="none" stroke="black" points="172.5,-664.5 172.5,-710.5 "/>
            <text text-anchor="middle" x="200.5" y="-695.3" font-family="Times New Roman,serif" font-size="14.00">
                input:
            </text>
            <polyline fill="none" stroke="black" points="172.5,-687.5 228.5,-687.5 "/>
            <text text-anchor="middle" x="200.5" y="-672.3" font-family="Times New Roman,serif" font-size="14.00">
                output:
            </text>
            <polyline fill="none" stroke="black" points="228.5,-664.5 228.5,-710.5 "/>
            <text text-anchor="middle" x="273.5" y="-695.3" font-family="Times New Roman,serif" font-size="14.00">(None,
                1164)
            </text>
            <polyline fill="none" stroke="black" points="228.5,-687.5 318.5,-687.5 "/>
            <text text-anchor="middle" x="273.5" y="-672.3" font-family="Times New Roman,serif" font-size="14.00">(None,
                1164)
            </text>
        </g>
        <!-- 2351464337984&#45;&gt;2351464215776 -->
        <g id="edge15" class="edge">
            <title>2351464337984&#45;&gt;2351464215776</title>
            <path fill="none" stroke="black" d="M192,-747.366C192,-739.152 192,-729.658 192,-720.725"/>
            <polygon fill="black" stroke="black" points="195.5,-720.607 192,-710.607 188.5,-720.607 195.5,-720.607"/>
        </g>
        <!-- 2351469480312 -->
        <g id="node17" class="node">
            <title>2351469480312</title>
            <polygon fill="none" stroke="black" points="54,-581.5 54,-627.5 330,-627.5 330,-581.5 54,-581.5"/>
            <text text-anchor="middle" x="119" y="-600.8" font-family="Times New Roman,serif" font-size="14.00">
                dropout_2: Dropout
            </text>
            <polyline fill="none" stroke="black" points="184,-581.5 184,-627.5 "/>
            <text text-anchor="middle" x="212" y="-612.3" font-family="Times New Roman,serif" font-size="14.00">input:
            </text>
            <polyline fill="none" stroke="black" points="184,-604.5 240,-604.5 "/>
            <text text-anchor="middle" x="212" y="-589.3" font-family="Times New Roman,serif" font-size="14.00">
                output:
            </text>
            <polyline fill="none" stroke="black" points="240,-581.5 240,-627.5 "/>
            <text text-anchor="middle" x="285" y="-612.3" font-family="Times New Roman,serif" font-size="14.00">(None,
                1164)
            </text>
            <polyline fill="none" stroke="black" points="240,-604.5 330,-604.5 "/>
            <text text-anchor="middle" x="285" y="-589.3" font-family="Times New Roman,serif" font-size="14.00">(None,
                1164)
            </text>
        </g>
        <!-- 2351464215776&#45;&gt;2351469480312 -->
        <g id="edge16" class="edge">
            <title>2351464215776&#45;&gt;2351469480312</title>
            <path fill="none" stroke="black" d="M192,-664.366C192,-656.152 192,-646.658 192,-637.725"/>
            <polygon fill="black" stroke="black" points="195.5,-637.607 192,-627.607 188.5,-637.607 195.5,-637.607"/>
        </g>
        <!-- 2351469616096 -->
        <g id="node18" class="node">
            <title>2351469616096</title>
            <polygon fill="none" stroke="black" points="67,-498.5 67,-544.5 317,-544.5 317,-498.5 67,-498.5"/>
            <text text-anchor="middle" x="119" y="-517.8" font-family="Times New Roman,serif" font-size="14.00">dense_2:
                Dense
            </text>
            <polyline fill="none" stroke="black" points="171,-498.5 171,-544.5 "/>
            <text text-anchor="middle" x="199" y="-529.3" font-family="Times New Roman,serif" font-size="14.00">input:
            </text>
            <polyline fill="none" stroke="black" points="171,-521.5 227,-521.5 "/>
            <text text-anchor="middle" x="199" y="-506.3" font-family="Times New Roman,serif" font-size="14.00">
                output:
            </text>
            <polyline fill="none" stroke="black" points="227,-498.5 227,-544.5 "/>
            <text text-anchor="middle" x="272" y="-529.3" font-family="Times New Roman,serif" font-size="14.00">(None,
                1164)
            </text>
            <polyline fill="none" stroke="black" points="227,-521.5 317,-521.5 "/>
            <text text-anchor="middle" x="272" y="-506.3" font-family="Times New Roman,serif" font-size="14.00">(None,
                100)
            </text>
        </g>
        <!-- 2351469480312&#45;&gt;2351469616096 -->
        <g id="edge17" class="edge">
            <title>2351469480312&#45;&gt;2351469616096</title>
            <path fill="none" stroke="black" d="M192,-581.366C192,-573.152 192,-563.658 192,-554.725"/>
            <polygon fill="black" stroke="black" points="195.5,-554.607 192,-544.607 188.5,-554.607 195.5,-554.607"/>
        </g>
        <!-- 2351470220736 -->
        <g id="node19" class="node">
            <title>2351470220736</title>
            <polygon fill="none" stroke="black" points="69,-415.5 69,-461.5 315,-461.5 315,-415.5 69,-415.5"/>
            <text text-anchor="middle" x="122.5" y="-434.8" font-family="Times New Roman,serif" font-size="14.00">
                prelu_7: PReLU
            </text>
            <polyline fill="none" stroke="black" points="176,-415.5 176,-461.5 "/>
            <text text-anchor="middle" x="204" y="-446.3" font-family="Times New Roman,serif" font-size="14.00">input:
            </text>
            <polyline fill="none" stroke="black" points="176,-438.5 232,-438.5 "/>
            <text text-anchor="middle" x="204" y="-423.3" font-family="Times New Roman,serif" font-size="14.00">
                output:
            </text>
            <polyline fill="none" stroke="black" points="232,-415.5 232,-461.5 "/>
            <text text-anchor="middle" x="273.5" y="-446.3" font-family="Times New Roman,serif" font-size="14.00">(None,
                100)
            </text>
            <polyline fill="none" stroke="black" points="232,-438.5 315,-438.5 "/>
            <text text-anchor="middle" x="273.5" y="-423.3" font-family="Times New Roman,serif" font-size="14.00">(None,
                100)
            </text>
        </g>
        <!-- 2351469616096&#45;&gt;2351470220736 -->
        <g id="edge18" class="edge">
            <title>2351469616096&#45;&gt;2351470220736</title>
            <path fill="none" stroke="black" d="M192,-498.366C192,-490.152 192,-480.658 192,-471.725"/>
            <polygon fill="black" stroke="black" points="195.5,-471.607 192,-461.607 188.5,-471.607 195.5,-471.607"/>
        </g>
        <!-- 2351470338400 -->
        <g id="node20" class="node">
            <title>2351470338400</title>
            <polygon fill="none" stroke="black" points="70.5,-332.5 70.5,-378.5 313.5,-378.5 313.5,-332.5 70.5,-332.5"/>
            <text text-anchor="middle" x="122.5" y="-351.8" font-family="Times New Roman,serif" font-size="14.00">
                dense_3: Dense
            </text>
            <polyline fill="none" stroke="black" points="174.5,-332.5 174.5,-378.5 "/>
            <text text-anchor="middle" x="202.5" y="-363.3" font-family="Times New Roman,serif" font-size="14.00">
                input:
            </text>
            <polyline fill="none" stroke="black" points="174.5,-355.5 230.5,-355.5 "/>
            <text text-anchor="middle" x="202.5" y="-340.3" font-family="Times New Roman,serif" font-size="14.00">
                output:
            </text>
            <polyline fill="none" stroke="black" points="230.5,-332.5 230.5,-378.5 "/>
            <text text-anchor="middle" x="272" y="-363.3" font-family="Times New Roman,serif" font-size="14.00">(None,
                100)
            </text>
            <polyline fill="none" stroke="black" points="230.5,-355.5 313.5,-355.5 "/>
            <text text-anchor="middle" x="272" y="-340.3" font-family="Times New Roman,serif" font-size="14.00">(None,
                50)
            </text>
        </g>
        <!-- 2351470220736&#45;&gt;2351470338400 -->
        <g id="edge19" class="edge">
            <title>2351470220736&#45;&gt;2351470338400</title>
            <path fill="none" stroke="black" d="M192,-415.366C192,-407.152 192,-397.658 192,-388.725"/>
            <polygon fill="black" stroke="black" points="195.5,-388.607 192,-378.607 188.5,-388.607 195.5,-388.607"/>
        </g>
        <!-- 2351470407576 -->
        <g id="node21" class="node">
            <title>2351470407576</title>
            <polygon fill="none" stroke="black" points="72,-249.5 72,-295.5 312,-295.5 312,-249.5 72,-249.5"/>
            <text text-anchor="middle" x="125.5" y="-268.8" font-family="Times New Roman,serif" font-size="14.00">
                prelu_8: PReLU
            </text>
            <polyline fill="none" stroke="black" points="179,-249.5 179,-295.5 "/>
            <text text-anchor="middle" x="207" y="-280.3" font-family="Times New Roman,serif" font-size="14.00">input:
            </text>
            <polyline fill="none" stroke="black" points="179,-272.5 235,-272.5 "/>
            <text text-anchor="middle" x="207" y="-257.3" font-family="Times New Roman,serif" font-size="14.00">
                output:
            </text>
            <polyline fill="none" stroke="black" points="235,-249.5 235,-295.5 "/>
            <text text-anchor="middle" x="273.5" y="-280.3" font-family="Times New Roman,serif" font-size="14.00">(None,
                50)
            </text>
            <polyline fill="none" stroke="black" points="235,-272.5 312,-272.5 "/>
            <text text-anchor="middle" x="273.5" y="-257.3" font-family="Times New Roman,serif" font-size="14.00">(None,
                50)
            </text>
        </g>
        <!-- 2351470338400&#45;&gt;2351470407576 -->
        <g id="edge20" class="edge">
            <title>2351470338400&#45;&gt;2351470407576</title>
            <path fill="none" stroke="black" d="M192,-332.366C192,-324.152 192,-314.658 192,-305.725"/>
            <polygon fill="black" stroke="black" points="195.5,-305.607 192,-295.607 188.5,-305.607 195.5,-305.607"/>
        </g>
        <!-- 2351469217160 -->
        <g id="node22" class="node">
            <title>2351469217160</title>
            <polygon fill="none" stroke="black" points="73.5,-166.5 73.5,-212.5 310.5,-212.5 310.5,-166.5 73.5,-166.5"/>
            <text text-anchor="middle" x="125.5" y="-185.8" font-family="Times New Roman,serif" font-size="14.00">
                dense_4: Dense
            </text>
            <polyline fill="none" stroke="black" points="177.5,-166.5 177.5,-212.5 "/>
            <text text-anchor="middle" x="205.5" y="-197.3" font-family="Times New Roman,serif" font-size="14.00">
                input:
            </text>
            <polyline fill="none" stroke="black" points="177.5,-189.5 233.5,-189.5 "/>
            <text text-anchor="middle" x="205.5" y="-174.3" font-family="Times New Roman,serif" font-size="14.00">
                output:
            </text>
            <polyline fill="none" stroke="black" points="233.5,-166.5 233.5,-212.5 "/>
            <text text-anchor="middle" x="272" y="-197.3" font-family="Times New Roman,serif" font-size="14.00">(None,
                50)
            </text>
            <polyline fill="none" stroke="black" points="233.5,-189.5 310.5,-189.5 "/>
            <text text-anchor="middle" x="272" y="-174.3" font-family="Times New Roman,serif" font-size="14.00">(None,
                10)
            </text>
        </g>
        <!-- 2351470407576&#45;&gt;2351469217160 -->
        <g id="edge21" class="edge">
            <title>2351470407576&#45;&gt;2351469217160</title>
            <path fill="none" stroke="black" d="M192,-249.366C192,-241.152 192,-231.658 192,-222.725"/>
            <polygon fill="black" stroke="black" points="195.5,-222.607 192,-212.607 188.5,-222.607 195.5,-222.607"/>
        </g>
        <!-- 2351469323264 -->
        <g id="node23" class="node">
            <title>2351469323264</title>
            <polygon fill="none" stroke="black" points="72,-83.5 72,-129.5 312,-129.5 312,-83.5 72,-83.5"/>
            <text text-anchor="middle" x="125.5" y="-102.8" font-family="Times New Roman,serif" font-size="14.00">
                prelu_9: PReLU
            </text>
            <polyline fill="none" stroke="black" points="179,-83.5 179,-129.5 "/>
            <text text-anchor="middle" x="207" y="-114.3" font-family="Times New Roman,serif" font-size="14.00">input:
            </text>
            <polyline fill="none" stroke="black" points="179,-106.5 235,-106.5 "/>
            <text text-anchor="middle" x="207" y="-91.3" font-family="Times New Roman,serif" font-size="14.00">output:
            </text>
            <polyline fill="none" stroke="black" points="235,-83.5 235,-129.5 "/>
            <text text-anchor="middle" x="273.5" y="-114.3" font-family="Times New Roman,serif" font-size="14.00">(None,
                10)
            </text>
            <polyline fill="none" stroke="black" points="235,-106.5 312,-106.5 "/>
            <text text-anchor="middle" x="273.5" y="-91.3" font-family="Times New Roman,serif" font-size="14.00">(None,
                10)
            </text>
        </g>
        <!-- 2351469217160&#45;&gt;2351469323264 -->
        <g id="edge22" class="edge">
            <title>2351469217160&#45;&gt;2351469323264</title>
            <path fill="none" stroke="black" d="M192,-166.366C192,-158.152 192,-148.658 192,-139.725"/>
            <polygon fill="black" stroke="black" points="195.5,-139.607 192,-129.607 188.5,-139.607 195.5,-139.607"/>
        </g>
        <!-- 2351469385208 -->
        <g id="node24" class="node">
            <title>2351469385208</title>
            <polygon fill="none" stroke="black" points="73.5,-0.5 73.5,-46.5 310.5,-46.5 310.5,-0.5 73.5,-0.5"/>
            <text text-anchor="middle" x="125.5" y="-19.8" font-family="Times New Roman,serif" font-size="14.00">
                dense_5: Dense
            </text>
            <polyline fill="none" stroke="black" points="177.5,-0.5 177.5,-46.5 "/>
            <text text-anchor="middle" x="205.5" y="-31.3" font-family="Times New Roman,serif" font-size="14.00">
                input:
            </text>
            <polyline fill="none" stroke="black" points="177.5,-23.5 233.5,-23.5 "/>
            <text text-anchor="middle" x="205.5" y="-8.3" font-family="Times New Roman,serif" font-size="14.00">
                output:
            </text>
            <polyline fill="none" stroke="black" points="233.5,-0.5 233.5,-46.5 "/>
            <text text-anchor="middle" x="272" y="-31.3" font-family="Times New Roman,serif" font-size="14.00">(None,
                10)
            </text>
            <polyline fill="none" stroke="black" points="233.5,-23.5 310.5,-23.5 "/>
            <text text-anchor="middle" x="272" y="-8.3" font-family="Times New Roman,serif" font-size="14.00">(None,
                1)
            </text>
        </g>
        <!-- 2351469323264&#45;&gt;2351469385208 -->
        <g id="edge23" class="edge">
            <title>2351469323264&#45;&gt;2351469385208</title>
            <path fill="none" stroke="black" d="M192,-83.3664C192,-75.1516 192,-65.6579 192,-56.7252"/>
            <polygon fill="black" stroke="black" points="195.5,-56.6068 192,-46.6068 188.5,-56.6069 195.5,-56.6068"/>
        </g>
    </g>
</svg>
